<svg id="v1" xmlns="http://www.w3.org/2000/svg" xmlns:xlink="http://www.w3.org/1999/xlink" width="1000" height="1000" viewBox="0 0 1000 1000">
  <defs>
    <style>
      .cls-1 {
        fill: #e4f2de;
        stroke: #797864;
        stroke-width: 1px;
      }

      .cls-2 {
        fill-rule: evenodd;
        fill: url(#linear-gradient);
      }
    </style>
    <linearGradient id="linear-gradient" x1="635.683" y1="154.938" x2="411.286" y2="845.562" gradientUnits="userSpaceOnUse">
      <stop offset="0" stop-color="#c01414"/>
      <stop offset="0.557" stop-color="#5b379e"/>
      <stop offset="1" stop-color="#28d739"/>
    </linearGradient>
  </defs>
  <circle id="Elipse_1_copiar" data-name="Elipse 1 copiar" class="cls-1" cx="500" cy="500" r="495"/>
  <path id="Preenchimento_de_Cor_1" data-name="Preenchimento de Cor 1" class="cls-2" d="M752.494,171.9c20.89,22.324,18.372,62.045.368,90.443-27.1,42.741-61.624,75.673-107.12,100-19.247,10.291-48.312,25.915-72.886,18.382-10.5-3.22-29.007-16.089-13.62-27.573,12.237-9.134,49.667-7.716,66.628-13.971,41.123-15.165,80.431-90.7,41.964-119.487-22.236-16.642-60.924-.176-80.984,9.559L557.4,243.229l-5.521,8.823c-7.875,12.619-15.665,25.214-23.56,38.6-13.137,22.282-27.677,43.309-42.333,63.971-9.029,12.731-16.614,27.094-27.608,37.868,0,0.043,7.281-1.633,30.185-.368,32.795,1.812,52.386,5.429,70.678,26.839l0.736-.735L576.537,405c11.184-7.862,23.84-13.807,37.547-18.75,11.456-2.988,20.965-5.358,25.032-1.1,0.523,3-.861,3.265-13.252,10.662-9.109,5.437-18.266,12.031-24.3,20.588-16.661,23.648-15.754,55.854,6.258,68.384,20.835,11.859,49.5-2.475,65.524-9.192,7.687-3.221,15.89-8.232,25.4-4.779q0.368,2.2.736,4.412c-5.555,14.185-17.159,22.675-28.713,30.882C636.46,530.474,579.535,557.861,532,534.041l-26.873,18.75c-18.844,11.833-40.159,21.43-61.842,30.147C388.856,604.82,324.089,612.295,286.1,650.219c-28.641,28.588-46.391,63.54-20.982,99.633C281.3,763.589,288.4,774.02,347.2,788.088c152.448,21.4,263.469-55.5,325.778-88.236,13.45-7.344,36.66-19.937,42.7-19.486,0.488,1.84-.965,3.608-14.724,16.912A404.927,404.927,0,0,1,652,737.352c-43.067,30.268-91.4,54.586-145.4,74.265a551.934,551.934,0,0,1-61.475,18.751c-43.776,10.395-62.91,16.2-114.114,15.073-25.735-.569-33.252-2.668-48.591-5.514-44.784-10.23-88.189-37.5-97.181-78.678-6.494-29.73,14.515-61.407,30.185-82.354,9.367-12.522,21.23-23.457,33.5-33.088,15.606-12.252,30.857-24.839,47.854-36.03,30.254-19.919,65.353-32.2,101.6-46.324l33.866-9.559c29.809-9.124,55.544-19.4,65.524-27.206,8.421-9.373,12.838-19.531,15.093-33.089,4.463-26.829-40.5-55-66.629-56.618-7.5-.464-17.773-3.546-23.559-0.735l-15.092,17.279-33.866,33.824L336.9,518.967c-24.241,18.243-50.364,33.14-79.144,47.059-12.939,6.259-67.826,26.377-76.567,5.883-2.8-9.3,2.1-18.4,9.571-29.044,17.036-22.664,35.454-43.207,57.426-59.192a557.746,557.746,0,0,1,103.071-59.192l34.234-13.971,22.087-6.985,20.614-27.574c36.558-48.975,59.131-87.391,62.211-91.913-0.248.221-.138,0.1-29.817,18.75-31.864,19.591-66.055,38.557-104.912,50.369-20.368,6.191-42.377,12.249-72.15,6.25-18.211-3.67-35.365-14.323-48.59-27.207-20.106-19.587-23.845-67.262-5.154-95.221,11.72-14.093,35.629-32.484,43.805-21.692-1.625,7.348,4.653,29.873,10.676,44.118,3.18,5.152,5.345,8.855,8.834,13.6,16.591,22.578,61.339,40.449,96.445,30.515,28.056-7.94,50.683-24.352,73.255-38.236,34.422-21.175,68.192-42.859,104.175-62.5,27.689-15.115,57.568-27.045,89.083-38.236C692.335,151.667,731.6,149.581,752.494,171.9Zm114.114,94.119c-1,5.4-23.888,32.388-46.749,65.074-4.389,6.819-29.918,43.3-38.652,54.78-16.342,22.948-13.481,42.527-55.217,55.516-4.076,1.268-10.609,3.8-15.093,2.941-5.154-.983-3.925-0.856-5.153-3.309-2.137-5.449,3-11.206,5.89-15.074,8.219-11.009,25.27-19.46,33.5-30.147,14.719-19.12,24-29.354,44.91-52.206C848.974,279.205,851.84,276.321,866.608,266.023Zm-34.6,164.708a2.438,2.438,0,0,1,1.841,1.1l-30.922,47.794-21.35,34.192c-5.936,10.832-8.689,22.651-15.829,31.986-10.782,14.1-25.376,21.6-39.756,29.412l-17.3,6.25c-3.424,2.284-9.037-.364-13.252-0.368a3.126,3.126,0,0,0-1.841-2.206c0.07-13.975,19.177-30.64,30.554-39.706,15.2-12.11,29.128-28.084,41.964-42.648C756.943,505.941,827.925,432.605,832.006,430.731ZM370.763,446.54l-22.455,7.72c-30.676,12.621-60.257,26.4-82.825,47.8-7.18,6.806-20.386,23.039-20.614,32.721,0.036,2.9-.045,8.551,42.332-11.4,24.991-14.811,48.843-35.251,66.628-57.354l18.038-19.485h-1.1Z"/>
</svg>
